<?xml version="1.0" encoding="UTF-8" standalone="no"?>
<!-- Created with Inkscape (http://www.inkscape.org/) -->

<svg
   width="143.49074"
   height="206.38162"
   viewBox="0 0 37.965258 54.605137"
   version="1.1"
   id="svg5"
   xml:space="preserve"
   inkscape:version="1.2 (dc2aedaf03, 2022-05-15)"
   sodipodi:docname="player.svg"
   xmlns:inkscape="http://www.inkscape.org/namespaces/inkscape"
   xmlns:sodipodi="http://sodipodi.sourceforge.net/DTD/sodipodi-0.dtd"
   xmlns="http://www.w3.org/2000/svg"
   xmlns:svg="http://www.w3.org/2000/svg"><sodipodi:namedview
     id="namedview7"
     pagecolor="#ffffff"
     bordercolor="#666666"
     borderopacity="1.0"
     inkscape:showpageshadow="2"
     inkscape:pageopacity="0.0"
     inkscape:pagecheckerboard="0"
     inkscape:deskcolor="#d1d1d1"
     inkscape:document-units="px"
     showgrid="false"
     inkscape:zoom="2.9825758"
     inkscape:cx="27.325374"
     inkscape:cy="130.59182"
     inkscape:window-width="1920"
     inkscape:window-height="1018"
     inkscape:window-x="-6"
     inkscape:window-y="-6"
     inkscape:window-maximized="1"
     inkscape:current-layer="layer6" /><defs
     id="defs2" /><g
     inkscape:groupmode="layer"
     id="layer5"
     inkscape:label="Arm_R_Upper"
     style="display:inline"
     inkscape:transform-center-x="0.032098082"
     inkscape:transform-center-y="4.8632618"
     transform="rotate(8.6575091,261.40383,9.1584208)"><path
       style="display:inline;fill:#b69196;fill-opacity:1;stroke:none;stroke-width:0.264583px;stroke-linecap:butt;stroke-linejoin:miter;stroke-opacity:1"
       d="m 18.008064,47.060483 0.931451,-0.221773 c 0,0 0.940652,-0.04372 1.419356,2.616934 0.230061,1.554871 -2.16714,2.020337 -2.616936,0.35484 -0.785709,-3.50407 0.266129,-2.750001 0.266129,-2.750001 z"
       id="path10592"
       sodipodi:nodetypes="ccccc"
       inkscape:label="skin" /><path
       style="display:inline;fill:#2c3546;fill-opacity:1;stroke:none;stroke-width:0.264583px;stroke-linecap:butt;stroke-linejoin:miter;stroke-opacity:1"
       d="m 15.080645,40.096773 c -0.626585,-3.537202 4.642448,-4.227189 4.790322,-0.84274 -0.18088,6.922509 -0.03515,6.609503 0.44355,9.270159 l -2.927421,0.399195 c -0.785709,-3.50407 -1.545412,-4.706304 -2.306451,-8.826614 z"
       id="path10594"
       sodipodi:nodetypes="ccccc"
       inkscape:label="jacket" /><path
       style="fill:#a99db5;fill-opacity:1;stroke:none;stroke-width:0.264583px;stroke-linecap:butt;stroke-linejoin:miter;stroke-opacity:1"
       d="m 20.225807,47.77016 c -0.177419,0 -3.038307,0.443547 -3.038307,0.443547 l 0.177419,0.754034 3.016129,-0.443547 z"
       id="path11286"
       sodipodi:nodetypes="ccccc"
       inkscape:label="cuff" /></g><g
     inkscape:groupmode="layer"
     id="layer7"
     inkscape:label="gun"
     style="display:inline;fill:#2d2d2d;fill-opacity:1;stroke:#000000;stroke-opacity:1"
     transform="translate(-2.6372452,-38.526151)"><path
       style="fill:#2d2d2d;fill-opacity:1;stroke:#000000;stroke-width:0.264583px;stroke-linecap:butt;stroke-linejoin:miter;stroke-opacity:1"
       d="m 25.633516,44.601989 c -0.534219,0.477757 -2.647524,-0.526826 -1.197581,-2.439517 0.58877,-0.359849 0.51514,-1.050898 -0.06653,-1.995966 1.384024,-0.913595 2.787869,-1.43078 4.213709,-1.508064 h 11.887097 v 0.953627 h -0.465725 v 1.352822 h -4.280244 v -0.266128 h -5.83266 l -0.997985,0.510082 c -0.693282,0.386373 -1.394319,0.656423 -2.12903,0.42137 -0.942791,1.017533 -1.047403,1.995153 -1.131051,2.971774 z"
       id="path12488"
       sodipodi:nodetypes="cccccccccccccc" /></g><g
     inkscape:groupmode="layer"
     id="layer6"
     inkscape:label="Arm_R_Lower"
     inkscape:transform-center-x="-0.15036456"
     inkscape:transform-center-y="5.8015034"
     transform="rotate(14.537671,131.30539,50.281632)"
     style="display:inline"><path
       style="fill:#b69196;fill-opacity:1;stroke:none;stroke-width:0.264583px;stroke-linecap:butt;stroke-linejoin:miter;stroke-opacity:1"
       d="m 9.0236266,48.824206 c -0.258828,-1.406739 1.9558574,-1.668753 2.3286294,-0.776209 1.177662,3.230817 1.75531,7.117705 2.129032,9.403224 0.397439,0.826203 0.666925,1.2805 0.931452,2.372986 0.188365,0.654866 -2.294891,1.266272 -2.528226,0.332661 -0.07094,-0.839805 0.03078,-1.572941 0.133065,-2.528229 C 10.79043,55.134908 9.8521186,52.543301 9.0236266,48.824206 Z"
       id="path11565"
       sodipodi:nodetypes="ccccccc"
       inkscape:label="skin" /></g><g
     inkscape:groupmode="layer"
     id="layer2"
     inkscape:label="Body"
     style="display:inline"
     sodipodi:insensitive="true"
     transform="translate(-14.046587,-26.002152)"><path
       style="fill:#b69196;fill-opacity:1;stroke:none;stroke-width:0.264583px;stroke-linecap:butt;stroke-linejoin:miter;stroke-opacity:1"
       d="m 22.95816,27.976338 c 0.737918,0.770816 0.811235,2.162949 0.752727,3.427165 0.02248,0.421345 0.555051,1.060403 0.156165,1.383806 l -0.283196,0.307004 c -0.04268,0.652968 -0.302478,1.250867 -0.500241,1.719292 -0.333985,0.753847 -1.186857,0.469919 -2.226816,-0.188183 -0.486545,0.178654 -0.78079,1.395728 -0.972272,3.167724 l 3.235179,7.928465 c 0.417605,3.763511 0.557976,5.519392 0.247754,7.261631 l -7.842748,0.316517 c 0.319319,-2.385675 0.708671,-3.452059 1.771853,-5.081827 L 15.6818,36.664056 c 0.302035,-0.626985 1.530699,-1.746212 1.59574,-2.868384 -0.384204,-0.947033 -1.249259,-3.333167 -0.792625,-4.216638 1.038057,-1.445499 3.033545,-4.009508 6.473245,-1.602696 z"
       id="path5445"
       sodipodi:nodetypes="ccccccccccccccc"
       inkscape:label="skin" /><path
       style="fill:#202835;fill-opacity:1;stroke:none;stroke-width:0.264583px;stroke-linecap:butt;stroke-linejoin:miter;stroke-opacity:1"
       d="m 20.403226,38.14516 3.104838,2.217742 c 1.64952,0.938817 -0.04079,5.073049 0.140675,9.157698 -1.558214,0.68244 -8.335173,2.26893 -7.680997,0.334239 0.658317,-2.336022 -0.275191,-4.672044 -0.975807,-7.008066 -0.762781,-4.45097 -0.03954,-5.058197 0.887097,-5.943547 1.321403,-0.743326 2.785583,-0.601432 4.524194,1.241934 z"
       id="path234"
       sodipodi:nodetypes="ccccccc"
       inkscape:label="jacket_main" /><path
       style="display:inline;fill:#a99db5;fill-opacity:1;stroke:none;stroke-width:0.264583px;stroke-linecap:butt;stroke-linejoin:miter;stroke-opacity:1"
       d="m 20.604399,38.309589 c -3.584221,-0.979812 -4.057674,-1.014841 -4.814076,-0.297488 -1.051106,1.063541 -0.611927,3.001384 -0.876335,4.769339 -0.924662,-0.231514 -1.269256,-2.818326 -0.232532,-5.124178 1.367261,-1.882765 3.562103,-1.827527 5.264311,-0.0063 z"
       id="path332"
       sodipodi:nodetypes="cccccc"
       inkscape:label="hood" /><path
       style="fill:#4f5aad;fill-opacity:1;stroke:none;stroke-width:0.264583px;stroke-linecap:butt;stroke-linejoin:miter;stroke-opacity:1"
       d="m 23.881275,29.893856 c 0.752167,0.05566 -1.018818,-4.227604 -4.788093,-3.870557 -1.333302,0.241185 -2.7089,1.218933 -3.391569,2.896056 l -0.308255,1.930089 c -0.05155,2.947499 -0.69476,5.276765 3.446304,3.659002 0.259218,2.820465 3.41812,5.890269 3.493652,4.387596 -2.279698,-2.247992 -1.995501,-3.410613 -2.242802,-4.908551 0.290077,-2.69559 1.69056,-4.571193 3.790763,-4.093635 z"
       id="path6138"
       sodipodi:nodetypes="cccccccc"
       inkscape:label="hair" /><path
       style="fill:#a99db5;fill-opacity:1;stroke:none;stroke-width:0.264583px;stroke-linecap:butt;stroke-linejoin:miter;stroke-opacity:1"
       d="m 15.612903,52.737902 7.939516,-0.310483 c -0.232756,2.085408 0.290161,5.691873 -1.375,6.653227 -1.924809,0.847648 -6.678207,0.668719 -7.407258,-1.375001 -0.667107,-2.10677 -0.168466,-3.413242 0.842742,-4.967743 z"
       id="path6841"
       sodipodi:nodetypes="ccccc"
       inkscape:label="shorts" /><path
       style="fill:#202835;fill-opacity:1;stroke:none;stroke-width:0.264583px;stroke-linecap:butt;stroke-linejoin:miter;stroke-opacity:1"
       d="m 15.302419,52.409047 8.42742,-0.380823 -0.01838,0.802845 -8.416657,0.269287 z"
       id="path7947"
       sodipodi:nodetypes="ccccc"
       inkscape:label="belt" /></g><g
     inkscape:groupmode="layer"
     id="layer3"
     inkscape:label="Leg_R_Upper"
     style="display:inline"
     inkscape:transform-center-x="-0.035304244"
     inkscape:transform-center-y="6.3050947"
     transform="rotate(0.03153442,32269.803,-5059.4903)"><path
       style="fill:#202835;fill-opacity:1;stroke:none;stroke-width:0.264583px;stroke-linecap:butt;stroke-linejoin:miter;stroke-opacity:1"
       d="m 21.602111,55.933679 c -0.07177,4.42278 -0.581603,10.969193 -1.324341,13.870075 -0.855571,2.249154 -4.873764,1.881324 -4.69085,-0.751803 0.450027,-5.636789 0.555633,-9.328262 0.411262,-13.070765 z"
       id="path8931"
       sodipodi:nodetypes="ccccc"
       inkscape:label="tight" /><path
       style="fill:#a99db5;fill-opacity:1;stroke:none;stroke-width:0.264583px;stroke-linecap:butt;stroke-linejoin:miter;stroke-opacity:1"
       d="m 14.740895,59.684943 8.530902,-0.09409 -0.02598,-3.35014 c -0.09326,-2.95944 -7.28076,-3.163411 -8.528672,0.437785 z"
       id="path8653"
       sodipodi:nodetypes="ccccc"
       inkscape:label="shorts" /></g><g
     inkscape:groupmode="layer"
     id="layer4"
     inkscape:label="Leg_R_Lower"
     inkscape:transform-center-x="-1.2616262"
     inkscape:transform-center-y="7.6525532"
     style="display:inline"
     transform="translate(-14.672795,-32.507771)"><path
       style="display:inline;fill:#202835;fill-opacity:1;stroke:none;stroke-width:0.264583px;stroke-linecap:butt;stroke-linejoin:miter;stroke-opacity:1"
       d="m 18.318548,82.233869 -3.149194,-0.04435 c -0.609542,-3.885198 -0.909329,-8.635905 0.620968,-13.100819 0.653876,-1.777722 3.785254,-1.986151 4.268827,0.161276 0.409354,3.625533 -2.105166,8.057671 -1.740601,12.983897 z"
       id="path9349"
       sodipodi:nodetypes="cccccc"
       inkscape:label="tight" /><path
       style="fill:#4f271c;fill-opacity:1;stroke:none;stroke-width:0.264583px;stroke-linecap:butt;stroke-linejoin:miter;stroke-opacity:1"
       d="m 18.38508,80.526209 -3.703629,-0.110887 c 0.426334,2.317014 0.137623,5.893647 0.02218,6.675404 l 9.159274,0.02218 c -0.0316,-0.919893 0.148712,-2.03086 -1.995968,-2.040324 C 19.82702,84.85759 18.237486,84.089 18.385078,80.526212 Z"
       id="path9627"
       sodipodi:nodetypes="cccccc"
       inkscape:label="boot" /></g></svg>
