<?xml version="1.0" encoding="UTF-8" standalone="no"?>
<!-- Created with Inkscape (http://www.inkscape.org/) -->

<svg
   width="114.07428"
   height="206.38164"
   viewBox="0 0 30.18215 54.605136"
   version="1.1"
   id="svg5"
   xml:space="preserve"
   inkscape:version="1.2 (dc2aedaf03, 2022-05-15)"
   sodipodi:docname="zombi.svg"
   xmlns:inkscape="http://www.inkscape.org/namespaces/inkscape"
   xmlns:sodipodi="http://sodipodi.sourceforge.net/DTD/sodipodi-0.dtd"
   xmlns="http://www.w3.org/2000/svg"
   xmlns:svg="http://www.w3.org/2000/svg"><sodipodi:namedview
     id="namedview7"
     pagecolor="#ffffff"
     bordercolor="#666666"
     borderopacity="1.0"
     inkscape:showpageshadow="2"
     inkscape:pageopacity="0.0"
     inkscape:pagecheckerboard="0"
     inkscape:deskcolor="#d1d1d1"
     inkscape:document-units="px"
     showgrid="false"
     inkscape:zoom="2.9825758"
     inkscape:cx="26.487172"
     inkscape:cy="97.063752"
     inkscape:window-width="1920"
     inkscape:window-height="1018"
     inkscape:window-x="-6"
     inkscape:window-y="-6"
     inkscape:window-maximized="1"
     inkscape:current-layer="layer2" /><defs
     id="defs2" /><g
     inkscape:groupmode="layer"
     id="layer5"
     inkscape:label="Arm_R_Upper"
     style="display:inline"
     inkscape:transform-center-x="0.032098082"
     inkscape:transform-center-y="4.8632618"
     transform="rotate(8.6575091,261.38841,8.954742)"
     sodipodi:insensitive="true"><path
       style="display:inline;fill:#5f855b;fill-opacity:1;stroke:none;stroke-width:0.264583px;stroke-linecap:butt;stroke-linejoin:miter;stroke-opacity:1"
       d="m 15.409669,40.413152 4.304369,-0.989143 c 0,0 0.0056,6.316769 0.644833,10.031635 0.230061,1.554871 -2.16714,2.020337 -2.616936,0.35484 -0.785709,-3.50407 -2.332266,-9.397332 -2.332266,-9.397332 z"
       id="path10592"
       sodipodi:nodetypes="ccccc"
       inkscape:label="skin" /><path
       style="display:inline;fill:#949489;fill-opacity:1;stroke:none;stroke-width:0.264583px;stroke-linecap:butt;stroke-linejoin:miter;stroke-opacity:1"
       d="m 15.080645,40.096773 c -0.626585,-3.537202 4.642448,-4.227189 4.790322,-0.84274 0.0978,2.502015 0.06449,2.802056 0.211428,4.117322 l -4.042299,0.531781 C 15.83822,42.882158 15.592104,42.161229 15.080645,40.096773 Z"
       id="path10594"
       sodipodi:nodetypes="ccccc"
       inkscape:label="jacket" /></g><g
     inkscape:groupmode="layer"
     id="layer6"
     inkscape:label="Arm_R_Lower"
     inkscape:transform-center-x="-0.15036456"
     inkscape:transform-center-y="5.8015034"
     transform="rotate(14.537671,131.28997,50.160758)"
     style="display:inline"><path
       style="fill:#5f855b;fill-opacity:1;stroke:none;stroke-width:0.264583px;stroke-linecap:butt;stroke-linejoin:miter;stroke-opacity:1"
       d="m 9.0236266,48.824206 c -0.258828,-1.406739 1.9558574,-1.668753 2.3286294,-0.776209 1.177662,3.230817 1.75531,7.117705 2.129032,9.403224 0.397439,0.826203 0.666925,1.2805 0.931452,2.372986 0.188365,0.654866 -2.294891,1.266272 -2.528226,0.332661 -0.07094,-0.839805 0.03078,-1.572941 0.133065,-2.528229 C 10.79043,55.134908 9.8521186,52.543301 9.0236266,48.824206 Z"
       id="path11565"
       sodipodi:nodetypes="ccccccc"
       inkscape:label="skin" /></g><g
     inkscape:groupmode="layer"
     id="layer2"
     inkscape:label="Body"
     style="display:inline"
     transform="translate(-14.077422,-26.002152)"><path
       style="display:inline;fill:#5f855b;fill-opacity:1;stroke:none;stroke-width:0.264583px;stroke-linecap:butt;stroke-linejoin:miter;stroke-opacity:1"
       d="m 22.95816,27.976338 c 0.737918,0.770816 0.811235,2.162949 0.752727,3.427165 0.02248,0.421345 0.555051,1.060403 0.156165,1.383806 l -0.283196,0.307004 c -0.04268,0.652968 -0.302478,1.250867 -0.500241,1.719292 -0.333985,0.753847 -1.186857,0.469919 -2.226816,-0.188183 -0.486545,0.178654 -0.78079,1.395728 -0.972272,3.167724 l 3.235179,7.928465 c 0.417605,3.763511 0.557976,5.519392 0.247754,7.261631 l -7.842748,0.316517 c 0.319319,-2.385675 0.708671,-3.452059 1.771853,-5.081827 L 15.869982,37.354055 c 0.302035,-0.626985 1.342517,-2.436211 1.407558,-3.558383 -0.384204,-0.947033 -1.249259,-3.333167 -0.792625,-4.216638 1.038057,-1.445499 3.033545,-4.009508 6.473245,-1.602696 z"
       id="path5445"
       sodipodi:nodetypes="ccccccccccccccc"
       inkscape:label="skin"
       sodipodi:insensitive="true" /><path
       style="display:inline;fill:#a5a599;fill-opacity:1;stroke:none;stroke-width:0.264583px;stroke-linecap:butt;stroke-linejoin:miter;stroke-opacity:1"
       d="m 20.403226,38.14516 1.913021,1.527743 c 0.918851,1.284862 2.932964,10.933568 -1.429438,5.664316 -1.494757,-1.805486 2.624285,4.680353 2.699203,5.814289 0.06803,1.029615 -4.370957,0.668516 -3.917419,-0.607818 1.67185,-4.70487 -3.839757,3.665764 -4.077214,1.067511 0.658317,-2.336022 0.101172,-6.428406 -0.599444,-8.764428 -0.762781,-4.45097 -0.03954,-5.058197 0.887097,-5.943547 1.321403,-0.743326 3.099219,-0.41325 4.524194,1.241934 z"
       id="path234"
       sodipodi:nodetypes="ccssscccc"
       inkscape:label="jacket_main"
       sodipodi:insensitive="true" /><path
       style="display:inline;fill:#795537;fill-opacity:1;stroke:none;stroke-width:0.264583px;stroke-linecap:butt;stroke-linejoin:miter;stroke-opacity:1"
       d="m 23.881275,29.893856 c 0.752167,0.05566 -1.018818,-4.227604 -4.788093,-3.870557 -1.333302,0.241185 -2.7089,1.218933 -3.391569,2.896056 l -0.308255,1.930089 c 0.756446,5.572288 2.893767,4.501708 4.697154,3.138047 0.290077,-2.69559 1.69056,-4.571193 3.790763,-4.093635 z"
       id="path6138"
       sodipodi:nodetypes="cccccc"
       inkscape:label="hair"
       sodipodi:insensitive="true" /><path
       style="display:inline;fill:#2a2076;fill-opacity:1;stroke:none;stroke-width:0.264583px;stroke-linecap:butt;stroke-linejoin:miter;stroke-opacity:1"
       d="m 15.612903,52.737902 7.939516,-0.310483 c -0.232756,2.085408 0.290161,5.691873 -1.375,6.653227 -1.924809,0.847648 -6.678207,0.668719 -7.407258,-1.375001 -0.667107,-2.10677 -0.168466,-3.413242 0.842742,-4.967743 z"
       id="path6841"
       sodipodi:nodetypes="ccccc"
       inkscape:label="shorts"
       sodipodi:insensitive="true" /><path
       style="fill:#4d4d4d;fill-opacity:1;stroke:none;stroke-width:0.264583px;stroke-linecap:butt;stroke-linejoin:miter;stroke-opacity:1"
       d="m 44.24812,37.330125 c 0.07736,-2.764785 -0.2442,-5.396505 -0.754031,-8.16129 -4.729704,-4.634328 -7.026382,-3.555277 -8.25,-0.754032 l 0.133064,9.048387 z"
       id="path1006"
       sodipodi:nodetypes="ccccc" /></g><g
     inkscape:groupmode="layer"
     id="layer3"
     inkscape:label="Leg_R_Upper"
     style="display:inline"
     inkscape:transform-center-x="-0.035304244"
     inkscape:transform-center-y="6.3050947"
     transform="rotate(0.03153442,32269.787,-5115.7583)"
     sodipodi:insensitive="true"><path
       style="fill:#2a2076;fill-opacity:1;stroke:none;stroke-width:0.264583px;stroke-linecap:butt;stroke-linejoin:miter;stroke-opacity:1"
       d="m 20.27777,69.803754 c -0.855571,2.249154 -4.873764,1.881324 -4.69085,-0.751803 0.450027,-5.636789 -0.635735,-8.512152 -0.780106,-12.254655 1.103658,-3.542612 8.029852,-3.275519 8.238437,-0.111688 -0.456797,4.497232 -1.833807,10.022297 -2.767481,13.118146 z"
       id="path8931"
       sodipodi:nodetypes="ccccc"
       inkscape:label="tight" /></g><g
     inkscape:groupmode="layer"
     id="layer4"
     inkscape:label="Leg_R_Lower"
     inkscape:transform-center-x="-1.2616262"
     inkscape:transform-center-y="7.6525532"
     style="display:inline"
     transform="translate(-14.70363,-32.507771)"
     sodipodi:insensitive="true"><path
       style="fill:#341912;fill-opacity:1;stroke:none;stroke-width:0.264583px;stroke-linecap:butt;stroke-linejoin:miter;stroke-opacity:1"
       d="m 18.38508,80.526209 -3.62522,-0.103046 c 0.426334,2.317014 0.05921,5.885806 -0.05623,6.667563 l 9.159274,0.02218 c -0.0316,-0.919893 0.148712,-2.03086 -1.995968,-2.040324 C 19.82702,84.85759 18.237486,84.089 18.385078,80.526212 Z"
       id="path9627"
       sodipodi:nodetypes="ccccccc"
       inkscape:label="boot" /><path
       style="display:inline;fill:#2a2076;fill-opacity:1;stroke:none;stroke-width:0.264583px;stroke-linecap:butt;stroke-linejoin:miter;stroke-opacity:1"
       d="M 14.706741,81.217247 C 14.84612,78.2036 14.260025,73.553614 15.790322,69.0887 c 0.653876,-1.777722 3.785254,-1.986151 4.268827,0.161276 0.409354,3.625533 -1.972101,6.871179 -1.607536,11.797405 -0.891606,0.01526 -1.805109,-0.51906 -3.744872,0.169866 z"
       id="path9349"
       sodipodi:nodetypes="ccccc"
       inkscape:label="tight" /></g></svg>
